<svg width="230" height="80" viewBox="0 0 230 80" fill="none" xmlns="http://www.w3.org/2000/svg">
<rect x="16" y="20" width="40" height="40" rx="6" fill="url(#paint0_linear_1_5023)"/>
<path d="M79.088 53.36C77.072 53.36 75.128 52.964 73.256 52.172C71.384 51.38 69.728 50.264 68.288 48.824L70.592 46.16C71.96 47.504 73.352 48.5 74.768 49.148C76.208 49.796 77.708 50.12 79.268 50.12C80.492 50.12 81.56 49.952 82.472 49.616C83.408 49.256 84.128 48.752 84.632 48.104C85.136 47.456 85.388 46.724 85.388 45.908C85.388 44.78 84.992 43.916 84.2 43.316C83.408 42.716 82.1 42.26 80.276 41.948L76.064 41.264C73.76 40.856 72.032 40.112 70.88 39.032C69.752 37.952 69.188 36.512 69.188 34.712C69.188 33.272 69.572 32.012 70.34 30.932C71.108 29.828 72.188 28.976 73.58 28.376C74.996 27.776 76.628 27.476 78.476 27.476C80.3 27.476 82.088 27.776 83.84 28.376C85.616 28.952 87.212 29.792 88.628 30.896L86.54 33.776C83.828 31.712 81.08 30.68 78.296 30.68C77.192 30.68 76.232 30.836 75.416 31.148C74.6 31.46 73.964 31.904 73.508 32.48C73.052 33.032 72.824 33.68 72.824 34.424C72.824 35.456 73.172 36.248 73.868 36.8C74.564 37.328 75.716 37.712 77.324 37.952L81.392 38.636C84.056 39.068 86.012 39.848 87.26 40.976C88.508 42.104 89.132 43.652 89.132 45.62C89.132 47.156 88.712 48.512 87.872 49.688C87.032 50.84 85.856 51.74 84.344 52.388C82.832 53.036 81.08 53.36 79.088 53.36ZM92.2021 53V27.8L95.8021 27.008V36.548C97.2181 35.06 99.0541 34.316 101.31 34.316C102.726 34.316 103.962 34.616 105.018 35.216C106.098 35.816 106.938 36.656 107.538 37.736C108.162 38.816 108.474 40.064 108.474 41.48V53H104.874V42.092C104.874 40.652 104.466 39.524 103.65 38.708C102.834 37.868 101.718 37.448 100.302 37.448C99.3421 37.448 98.4781 37.652 97.7101 38.06C96.9421 38.468 96.3061 39.056 95.8021 39.824V53H92.2021ZM121.34 53.36C119.564 53.36 117.944 52.94 116.48 52.1C115.04 51.26 113.9 50.12 113.06 48.68C112.22 47.24 111.8 45.632 111.8 43.856C111.8 42.08 112.22 40.472 113.06 39.032C113.9 37.592 115.04 36.452 116.48 35.612C117.944 34.748 119.564 34.316 121.34 34.316C123.14 34.316 124.76 34.748 126.2 35.612C127.64 36.452 128.78 37.592 129.62 39.032C130.46 40.472 130.88 42.08 130.88 43.856C130.88 45.632 130.46 47.24 129.62 48.68C128.78 50.12 127.64 51.26 126.2 52.1C124.76 52.94 123.14 53.36 121.34 53.36ZM121.34 50.192C122.468 50.192 123.488 49.916 124.4 49.364C125.312 48.788 126.032 48.02 126.56 47.06C127.088 46.1 127.352 45.02 127.352 43.82C127.352 42.644 127.076 41.588 126.524 40.652C125.996 39.692 125.276 38.924 124.364 38.348C123.476 37.772 122.468 37.484 121.34 37.484C120.212 37.484 119.192 37.772 118.28 38.348C117.392 38.924 116.672 39.692 116.12 40.652C115.592 41.588 115.328 42.644 115.328 43.82C115.328 45.02 115.592 46.1 116.12 47.06C116.648 48.02 117.368 48.788 118.28 49.364C119.192 49.916 120.212 50.192 121.34 50.192ZM134.284 60.344V34.676H137.848V36.44C139.384 35.072 141.256 34.388 143.464 34.388C145.192 34.388 146.752 34.808 148.144 35.648C149.56 36.488 150.676 37.616 151.492 39.032C152.308 40.448 152.716 42.044 152.716 43.82C152.716 45.596 152.296 47.204 151.456 48.644C150.64 50.06 149.524 51.188 148.108 52.028C146.716 52.868 145.144 53.288 143.392 53.288C142.384 53.288 141.412 53.132 140.476 52.82C139.54 52.484 138.676 52.016 137.884 51.416V60.344H134.284ZM142.996 50.156C144.172 50.156 145.216 49.88 146.128 49.328C147.064 48.776 147.808 48.032 148.36 47.096C148.912 46.136 149.188 45.056 149.188 43.856C149.188 42.656 148.912 41.576 148.36 40.616C147.808 39.656 147.064 38.9 146.128 38.348C145.216 37.796 144.172 37.52 142.996 37.52C141.964 37.52 141.004 37.712 140.116 38.096C139.228 38.48 138.484 39.02 137.884 39.716V47.996C138.484 48.668 139.228 49.196 140.116 49.58C141.028 49.964 141.988 50.156 142.996 50.156ZM160.363 49.616H165.547C166.867 49.616 168.091 49.388 169.219 48.932C170.347 48.452 171.331 47.804 172.171 46.988C173.035 46.148 173.695 45.176 174.151 44.072C174.631 42.944 174.871 41.72 174.871 40.4C174.871 39.104 174.631 37.892 174.151 36.764C173.695 35.636 173.035 34.664 172.171 33.848C171.331 33.008 170.347 32.36 169.219 31.904C168.091 31.424 166.867 31.184 165.547 31.184H160.363V49.616ZM156.583 53V27.8H165.475C167.371 27.8 169.123 28.124 170.731 28.772C172.339 29.396 173.743 30.272 174.943 31.4C176.143 32.528 177.079 33.86 177.751 35.396C178.423 36.932 178.759 38.6 178.759 40.4C178.759 42.224 178.423 43.904 177.751 45.44C177.103 46.952 176.179 48.272 174.979 49.4C173.779 50.528 172.363 51.416 170.731 52.064C169.123 52.688 167.371 53 165.475 53H156.583ZM182.308 53V34.676H185.908V53H182.308ZM184.108 31.724C183.508 31.724 182.992 31.508 182.56 31.076C182.128 30.62 181.912 30.092 181.912 29.492C181.912 28.868 182.128 28.352 182.56 27.944C182.992 27.512 183.508 27.296 184.108 27.296C184.732 27.296 185.26 27.512 185.692 27.944C186.124 28.352 186.34 28.868 186.34 29.492C186.34 30.092 186.124 30.62 185.692 31.076C185.26 31.508 184.732 31.724 184.108 31.724ZM199.219 60.704C197.875 60.704 196.567 60.548 195.295 60.236C194.023 59.924 192.871 59.48 191.839 58.904L193.207 56.096C194.287 56.648 195.295 57.044 196.231 57.284C197.191 57.548 198.151 57.68 199.111 57.68C200.719 57.68 201.931 57.308 202.747 56.564C203.587 55.82 204.007 54.728 204.007 53.288V51.2C202.399 52.472 200.563 53.108 198.499 53.108C196.819 53.108 195.271 52.7 193.855 51.884C192.463 51.044 191.359 49.916 190.543 48.5C189.727 47.06 189.319 45.476 189.319 43.748C189.319 41.996 189.727 40.412 190.543 38.996C191.383 37.556 192.499 36.428 193.891 35.612C195.307 34.772 196.891 34.352 198.643 34.352C199.627 34.352 200.575 34.52 201.487 34.856C202.423 35.168 203.275 35.624 204.043 36.224V34.676H207.607V53.288C207.607 55.664 206.875 57.488 205.411 58.76C203.971 60.056 201.907 60.704 199.219 60.704ZM198.967 50.012C200.023 50.012 200.983 49.832 201.847 49.472C202.711 49.088 203.431 48.548 204.007 47.852V39.644C203.431 38.972 202.699 38.444 201.811 38.06C200.947 37.676 199.999 37.484 198.967 37.484C197.815 37.484 196.771 37.76 195.835 38.312C194.923 38.864 194.191 39.62 193.639 40.58C193.111 41.516 192.847 42.572 192.847 43.748C192.847 44.924 193.111 45.992 193.639 46.952C194.191 47.888 194.923 48.632 195.835 49.184C196.771 49.736 197.815 50.012 198.967 50.012ZM211.839 53V34.676H215.439V53H211.839ZM213.639 31.724C213.039 31.724 212.523 31.508 212.091 31.076C211.659 30.62 211.443 30.092 211.443 29.492C211.443 28.868 211.659 28.352 212.091 27.944C212.523 27.512 213.039 27.296 213.639 27.296C214.263 27.296 214.791 27.512 215.223 27.944C215.655 28.352 215.871 28.868 215.871 29.492C215.871 30.092 215.655 30.62 215.223 31.076C214.791 31.508 214.263 31.724 213.639 31.724Z" fill="#0C2146"/>
<path d="M25.9866 47.448L28.6426 44.12C29.944 45.2507 31.192 46.0827 32.3866 46.616C33.6026 47.128 34.8826 47.384 36.2266 47.384C37.6133 47.384 38.7226 47.128 39.5546 46.616C40.3866 46.104 40.8026 45.4213 40.8026 44.568C40.8026 43.8 40.5146 43.2027 39.9386 42.776C39.384 42.3493 38.4453 42.0293 37.1226 41.816L32.6746 41.048C30.7546 40.728 29.2933 40.056 28.2906 39.032C27.3093 38.008 26.8186 36.6853 26.8186 35.064C26.8186 32.9733 27.608 31.32 29.1866 30.104C30.7866 28.888 32.9413 28.28 35.6506 28.28C37.272 28.28 38.904 28.5573 40.5466 29.112C42.2106 29.6667 43.6613 30.4347 44.8986 31.416L42.4026 34.872C41.208 33.9547 40.0346 33.2827 38.8826 32.856C37.7306 32.408 36.5466 32.184 35.3306 32.184C34.0933 32.184 33.1013 32.4187 32.3546 32.888C31.608 33.336 31.2346 33.944 31.2346 34.712C31.2346 35.3947 31.48 35.928 31.9706 36.312C32.4613 36.696 33.2826 36.9733 34.4346 37.144L38.6586 37.848C40.8773 38.2107 42.5413 38.9253 43.6506 39.992C44.7813 41.0373 45.3466 42.424 45.3466 44.152C45.3466 46.328 44.4826 48.0667 42.7546 49.368C41.048 50.6693 38.7653 51.32 35.9066 51.32C34.1146 51.32 32.344 50.9787 30.5946 50.296C28.8666 49.6133 27.3306 48.664 25.9866 47.448Z" fill="white"/>
<defs>
<linearGradient id="paint0_linear_1_5023" x1="16" y1="40" x2="56" y2="40" gradientUnits="userSpaceOnUse">
<stop stop-color="#2979FF"/>
<stop offset="1" stop-color="#4C589E"/>
</linearGradient>
</defs>
</svg>
